<svg width="256" height="256" xmlns="http://www.w3.org/2000/svg">
 <g id="Layer_1">
  <title>Layer 1</title>
  <path id="svg_1" d="m240.89237,37.48753c4.85681,-4.68691 8.40831,-10.62212 11.38415,-16.63594c1.81787,-2.39859 0.0968,-4.49699 -2.37925,-2.46303c-6.36341,4.24873 -15.02547,5.70574 -21.91518,1.82952c-7.78856,-4.02746 -11.30078,-13.60433 -9.53362,-21.94904c1.11912,-8.45663 7.27404,-15.0853 13.95682,-19.84684c7.67664,-5.49154 15.96646,-10.20578 22.98247,-16.56474c2.92949,0.05873 5.13419,4.65576 8.28696,5.87224c8.37145,6.23536 18.29238,10.82509 24.88465,19.16291c3.33053,4.75098 5.22874,10.60123 5.44066,16.38428c-1.01474,7.84225 -5.69091,16.1129 -13.755,18.34621c-6.97116,2.10927 -14.14343,-0.56572 -20.21831,-3.96889c-0.74202,-0.15925 -3.46367,-2.30347 -2.38501,-0.63708c3.63176,7.45295 7.61095,14.85356 13.37383,20.90493c0.33873,0.7646 2.99525,2.57862 1.58144,2.5498c-11.83287,0 -23.6657,0 -35.49858,0c1.26463,-0.99477 2.52932,-1.98957 3.794,-2.98435l0,0z" stroke-width="0" stroke="#000" fill="#BBBBBB"/>
  <path id="svg_3" d="m-14.41649,291.48753c4.85681,-4.68691 8.40831,-10.62212 11.38415,-16.63594c1.81787,-2.39859 0.0968,-4.49699 -2.37925,-2.46303c-6.36341,4.24873 -15.02547,5.70574 -21.91518,1.82952c-7.78856,-4.02746 -11.30078,-13.60433 -9.53362,-21.94904c1.11912,-8.45663 7.27404,-15.0853 13.95682,-19.84684c7.67664,-5.49154 15.96646,-10.20578 22.98247,-16.56474c2.92949,0.05873 5.13419,4.65576 8.28696,5.87224c8.37145,6.23536 18.29238,10.82509 24.88465,19.16291c3.33053,4.75098 5.22874,10.60123 5.44066,16.38428c-1.01474,7.84225 -5.69091,16.1129 -13.755,18.34621c-6.97116,2.10927 -14.14343,-0.56572 -20.21831,-3.96889c-0.74202,-0.15925 -3.46367,-2.30347 -2.38501,-0.63708c3.63176,7.45295 7.61095,14.85356 13.37383,20.90493c0.33873,0.7646 2.99525,2.57862 1.58144,2.5498c-11.83287,0 -23.6657,0 -35.49858,0c1.26463,-0.99477 2.52932,-1.98957 3.794,-2.98435l0,0z" stroke-width="0" stroke="#000" fill="#BBBBBB"/>
  <path id="svg_4" d="m240.58351,294.48753c4.85681,-4.68691 8.40831,-10.62212 11.38415,-16.63594c1.81787,-2.39859 0.0968,-4.49699 -2.37925,-2.46303c-6.36341,4.24873 -15.02547,5.70574 -21.91518,1.82952c-7.78856,-4.02746 -11.30078,-13.60433 -9.53362,-21.94904c1.11912,-8.45663 7.27404,-15.0853 13.95682,-19.84684c7.67664,-5.49154 15.96646,-10.20578 22.98247,-16.56474c2.92949,0.05873 5.13419,4.65576 8.28696,5.87224c8.37145,6.23536 18.29238,10.82509 24.88465,19.16291c3.33053,4.75098 5.22874,10.60123 5.44066,16.38428c-1.01474,7.84225 -5.69091,16.1129 -13.755,18.34621c-6.97116,2.10927 -14.14343,-0.56572 -20.21831,-3.96889c-0.74202,-0.15925 -3.46367,-2.30347 -2.38501,-0.63708c3.63176,7.45295 7.61095,14.85356 13.37383,20.90493c0.33873,0.7646 2.99525,2.57862 1.58144,2.5498c-11.83287,0 -23.6657,0 -35.49858,0c1.26463,-0.99477 2.52932,-1.98957 3.794,-2.98435l0,0z" stroke-width="0" stroke="#000" fill="#BBBBBB"/>
  <path transform="rotate(180, 126, 121.165)" id="svg_5" d="m110.89237,157.48753c4.85681,-4.68691 8.40831,-10.62212 11.38415,-16.63594c1.81787,-2.39859 0.0968,-4.49699 -2.37925,-2.46303c-6.36341,4.24873 -15.02547,5.70574 -21.91518,1.82952c-7.78856,-4.02746 -11.30078,-13.60433 -9.53362,-21.94904c1.11912,-8.45663 7.27404,-15.0853 13.95682,-19.84684c7.67664,-5.49154 15.96646,-10.20578 22.98247,-16.56474c2.92949,0.05873 5.13419,4.65576 8.28696,5.87224c8.37145,6.23536 18.29238,10.82509 24.88465,19.16291c3.33053,4.75098 5.22874,10.60123 5.44066,16.38428c-1.01474,7.84225 -5.69091,16.1129 -13.755,18.34621c-6.97116,2.10927 -14.14343,-0.56572 -20.21831,-3.96889c-0.74202,-0.15925 -3.46367,-2.30347 -2.38501,-0.63708c3.63176,7.45295 7.61095,14.85356 13.37383,20.90493c0.33873,0.7646 2.99525,2.57862 1.58144,2.5498c-11.83287,0 -23.6657,0 -35.49858,0c1.26463,-0.99477 2.52932,-1.98957 3.794,-2.98435l0,0z" stroke-width="0" stroke="#000" fill="#BBBBBB"/>
  <path id="svg_6" d="m-16.10763,36.48753c4.85681,-4.68691 8.40831,-10.62212 11.38415,-16.63594c1.81787,-2.39859 0.0968,-4.49699 -2.37925,-2.46303c-6.36341,4.24873 -15.02547,5.70574 -21.91518,1.82952c-7.78856,-4.02746 -11.30078,-13.60433 -9.53362,-21.94904c1.11912,-8.45663 7.27404,-15.0853 13.95682,-19.84684c7.67664,-5.49154 15.96646,-10.20578 22.98247,-16.56474c2.92949,0.05873 5.13419,4.65576 8.28696,5.87224c8.37145,6.23536 18.29238,10.82509 24.88465,19.16291c3.33053,4.75098 5.22874,10.60123 5.44066,16.38428c-1.01474,7.84225 -5.69091,16.1129 -13.755,18.34621c-6.97116,2.10927 -14.14343,-0.56572 -20.21831,-3.96889c-0.74202,-0.15925 -3.46367,-2.30347 -2.38501,-0.63708c3.63176,7.45295 7.61095,14.85356 13.37383,20.90493c0.33873,0.7646 2.99525,2.57862 1.58144,2.5498c-11.83287,0 -23.6657,0 -35.49858,0c1.26463,-0.99477 2.52932,-1.98957 3.794,-2.98435l0,0z" stroke-width="0" stroke="#000" fill="#BBBBBB"/>
 </g>

</svg>