<svg width="256" height="256" xmlns="http://www.w3.org/2000/svg">
 <g id="Layer_1">
  <title>Layer 1</title>
  <path transform="rotate(45, 256.6, -1.79169)" stroke-width="0" id="svg_2" d="m211,-0.40045c10.12924,-22.43977 28.39171,-41.59213 43.92805,-60.59954c18.07321,12.19776 33.68746,39.0326 47.27196,57.7225c-12.11646,21.61818 -29.55787,41.30643 -45.27027,60.69411c-16.93826,-17.73791 -31.42323,-38.00383 -45.92972,-57.81707l0,0z" stroke="#000" fill="#DDDDDD"/>
  <path transform="rotate(45, -0.399998, 256.208)" stroke-width="0" id="svg_7" d="m-46,257.59954c10.12924,-22.43977 28.39171,-41.59213 43.92805,-60.59954c18.07321,12.19776 33.68746,39.0326 47.27196,57.7225c-12.11646,21.61818 -29.55787,41.30643 -45.27027,60.69411c-16.93826,-17.73791 -31.42323,-38.00383 -45.92972,-57.81707l0,0z" stroke="#000" fill="#DDDDDD"/>
  <path transform="rotate(45, -0.200001, -1.79169)" stroke-width="0" id="svg_8" d="m-45.8,-0.40046c10.12924,-22.43977 28.39171,-41.59213 43.92805,-60.59954c18.07321,12.19776 33.68746,39.0326 47.27196,57.7225c-12.11646,21.61818 -29.55787,41.30643 -45.27027,60.69411c-16.93826,-17.73791 -31.42323,-38.00383 -45.92972,-57.81707l0,0z" stroke="#000" fill="#DDDDDD"/>
  <path transform="rotate(45, 256.521, 256.208)" stroke-width="0" id="svg_9" d="m210.92086,257.44007c10.12924,-22.43977 28.39171,-41.59213 43.92805,-60.59954c18.07321,12.19776 33.68746,39.0326 47.27196,57.7225c-12.11646,21.61818 -29.55787,41.30643 -45.27027,60.69411c-16.93826,-17.73791 -31.42323,-38.00383 -45.92972,-57.81707l0,0z" stroke="#000" fill="#DDDDDD"/>
 </g>
</svg>